<svg width="16" height="16" viewBox="0 0 16 16" fill="none" xmlns="http://www.w3.org/2000/svg">
<path d="M1.33301 12.6663V9.99967C1.33301 9.63148 1.63148 9.33301 1.99967 9.33301C2.36786 9.33301 2.66634 9.63148 2.66634 9.99967V12.6663C2.66634 12.8432 2.73663 13.0127 2.86165 13.1377C2.98668 13.2627 3.1562 13.333 3.33301 13.333H12.6663C12.8432 13.333 13.0127 13.2627 13.1377 13.1377C13.2627 13.0127 13.333 12.8432 13.333 12.6663V9.99967C13.333 9.63148 13.6315 9.33301 13.9997 9.33301C14.3679 9.33301 14.6663 9.63148 14.6663 9.99967V12.6663C14.6663 13.1968 14.4555 13.7053 14.0804 14.0804C13.7053 14.4555 13.1968 14.6663 12.6663 14.6663H3.33301C2.80257 14.6663 2.29402 14.4555 1.91895 14.0804C1.54387 13.7053 1.33301 13.1968 1.33301 12.6663ZM7.33301 1.99967C7.33301 1.63148 7.63148 1.33301 7.99967 1.33301C8.36786 1.33301 8.66634 1.63148 8.66634 1.99967V8.3903L10.8617 6.19499C11.122 5.93464 11.544 5.93464 11.8044 6.19499C12.0647 6.45534 12.0647 6.87735 11.8044 7.1377L8.47103 10.471C8.21068 10.7314 7.78867 10.7314 7.52832 10.471L4.19499 7.1377L4.14941 7.08691C3.93585 6.82507 3.95091 6.43906 4.19499 6.19499C4.43906 5.95091 4.82506 5.93585 5.08691 6.14941L5.1377 6.19499L7.33301 8.3903V1.99967Z" fill="white" style="fill:white;fill-opacity:1;"/>
</svg>
