<svg width="16" height="16" viewBox="0 0 16 16" fill="none" xmlns="http://www.w3.org/2000/svg">
<path d="M12.6667 8.00033H8.66671V13.3337H12C12.1768 13.3337 12.3464 13.2639 12.4714 13.139C12.5964 13.014 12.6667 12.8438 12.6667 12.667V8.00033ZM3.33337 12.667C3.33337 12.8438 3.40366 13.014 3.52869 13.139C3.65369 13.2639 3.82331 13.3337 4.00004 13.3337H7.33337V8.00033H3.33337V12.667ZM8.66671 5.33366V6.66699H13.3334V5.33366H8.66671ZM2.66671 6.66699H7.33337V5.33366H2.66671V6.66699ZM12 3.00033C12 2.73521 11.8945 2.48076 11.7071 2.29329C11.5195 2.10585 11.2652 2.00033 11 2.00033C10.9962 2.00033 10.9922 2.00039 10.9883 2.00033C10.5839 1.99332 10.1269 2.18653 9.68689 2.67546C9.38581 3.01003 9.11936 3.45998 8.90824 4.00033H11C11.2652 4.00033 11.5196 3.89543 11.7071 3.70801C11.8946 3.52047 12 3.26554 12 3.00033ZM4.00004 3.00033C4.00004 3.26554 4.10547 3.52047 4.29301 3.70801C4.48053 3.89543 4.73491 4.00033 5.00004 4.00033H7.09184C6.88072 3.45998 6.61427 3.01003 6.31319 2.67546C5.87316 2.18653 5.41617 1.99332 5.01176 2.00033C5.00789 2.00039 5.00391 2.00033 5.00004 2.00033C4.73489 2.00033 4.48053 2.10585 4.29301 2.29329C4.10554 2.48076 4.00012 2.73521 4.00004 3.00033ZM13.3334 3.00033C13.3334 3.34948 13.2549 3.69076 13.1081 4.00033H13.3334C14.0697 4.00033 14.6665 4.59741 14.6667 5.33366V6.66699C14.6667 7.16023 14.3982 7.59 14 7.82064V12.667C14 13.1974 13.7892 13.7066 13.4141 14.0817C13.039 14.4567 12.5304 14.667 12 14.667H4.00004C3.46969 14.667 2.96103 14.4567 2.58598 14.0817C2.21091 13.7066 2.00004 13.1974 2.00004 12.667V7.82064C1.60189 7.59 1.33337 7.16023 1.33337 6.66699V5.33366C1.33353 4.59741 1.93042 4.00033 2.66671 4.00033H2.89197C2.74517 3.69076 2.66671 3.34948 2.66671 3.00033C2.66678 2.38159 2.91278 1.7881 3.3503 1.35059C3.78787 0.913092 4.38127 0.666992 5.00004 0.666992V0.668294C5.8773 0.656895 6.67663 1.08636 7.30408 1.78353C7.5667 2.07534 7.79906 2.41331 8.00004 2.78613C8.20103 2.41331 8.43338 2.07534 8.696 1.78353C9.32345 1.08636 10.1228 0.656895 11 0.668294V0.666992C11.6188 0.666992 12.2122 0.913092 12.6498 1.35059C13.0873 1.7881 13.3333 2.38159 13.3334 3.00033Z" fill="currentColor"/>
</svg>
