<svg width="40" height="38" viewBox="0 0 40 38" fill="none" xmlns="http://www.w3.org/2000/svg">
<path d="M38.0749 2.70798C37.2834 1.61938 35.9516 0.943125 34.8217 0.563765C33.6918 0.184405 32.2835 -0.172964 30.968 0.0909389C29.8599 0.310858 28.6099 0.948623 27.4255 1.59189C26.4156 2.14168 25.515 3.12032 24.4943 3.96151C23.5936 4.70374 22.8404 5.72087 21.9561 6.68301C21.1537 7.55719 20.3076 8.38739 19.5434 9.4265C18.7847 8.38189 18.0969 7.40325 17.2946 6.52907C16.4103 5.56693 15.5315 4.65976 14.6308 3.91753C13.6101 3.07634 12.2073 3.00487 11.1975 2.45507C10.013 1.81181 9.1014 0.926632 7.99879 0.706712C6.6833 0.442809 5.59161 0.860656 4.489 1.23452C3.38639 1.60838 2.79142 2.33961 1.99994 3.42821C1.2958 4.39586 0.864581 5.31402 0.575283 6.66102C0.318735 7.83209 -0.0306064 8.97017 0.00214437 10.3392C0.0348951 11.5542 0.0403536 12.7968 0.291443 14.1163C0.520698 15.3313 -0.134317 16.8598 0.269609 18.1188C0.651701 19.3064 1.63968 20.362 2.16915 21.555C2.69862 22.7481 3.54469 23.7103 4.19424 24.8373C4.8438 25.9644 5.57523 26.9651 6.3285 28.0097C7.18548 29.1917 7.42019 30.8686 8.3263 31.8363C9.34157 32.9139 10.8154 33.4692 11.8525 34.2554C13.0533 35.1735 14.2214 36.0587 15.3896 36.5645C16.8033 37.1803 18.288 38.0215 19.5434 37.9995C20.7989 38.0215 22.3491 37.3232 23.7628 36.7075C24.9309 36.2017 25.9353 35.0361 27.1362 34.1179C28.1733 33.3262 29.003 32.1991 30.0182 31.1215C30.9243 30.1539 31.7322 29.0598 32.5892 27.8777C33.3424 26.8331 33.7409 25.629 34.3741 24.5295C35.0073 23.4299 35.6841 22.3797 36.1972 21.2252C36.7103 20.0706 37.4035 18.9655 37.7856 17.7779C38.1895 16.5189 39.5105 15.5073 39.7398 14.2922C39.9908 12.9727 39.9717 10.6471 39.999 9.4265C40.0317 8.05751 39.2888 7.44897 39.0322 6.2834C38.7375 4.9364 38.7845 3.67012 38.0804 2.70248L38.0749 2.70798Z" fill="#CE8A6A" style="fill:#CE8A6A;fill:color(display-p3 0.8062 0.5394 0.4158);fill-opacity:1;"/>
</svg>
