<svg width="16" height="16" viewBox="0 0 16 16" fill="none" xmlns="http://www.w3.org/2000/svg">
<path d="M1.33342 11.3333C1.33342 11.687 1.47389 12.0261 1.72394 12.2761C1.97399 12.5262 2.31313 12.6667 2.66675 12.6667H11.4481C11.8017 12.6667 12.1408 12.8073 12.3907 13.0573L13.8587 14.5253C13.9249 14.5915 14.0093 14.6366 14.1011 14.6548C14.1929 14.6731 14.2881 14.6637 14.3745 14.6279C14.461 14.5921 14.5349 14.5314 14.587 14.4536C14.639 14.3758 14.6667 14.2843 14.6667 14.1907V3.33333C14.6667 2.97971 14.5263 2.64057 14.2762 2.39052C14.0262 2.14048 13.687 2 13.3334 2H2.66675C2.31313 2 1.97399 2.14048 1.72394 2.39052C1.47389 2.64057 1.33342 2.97971 1.33342 3.33333V11.3333Z" stroke="white" style="stroke:white;stroke-opacity:1;" stroke-width="1.33333" stroke-linecap="round" stroke-linejoin="round"/>
<path d="M11.3333 7.33398H4.66659" stroke="white" style="stroke:white;stroke-opacity:1;" stroke-width="1.33333" stroke-linecap="round" stroke-linejoin="round"/>
<path d="M11.3333 10H7.33325" stroke="white" style="stroke:white;stroke-opacity:1;" stroke-width="1.33333" stroke-linecap="round" stroke-linejoin="round"/>
<path d="M11.3333 4.66602H5.99992" stroke="white" style="stroke:white;stroke-opacity:1;" stroke-width="1.33333" stroke-linecap="round" stroke-linejoin="round"/>
</svg>
