<svg width="48" height="48" viewBox="0 0 48 48" fill="none" xmlns="http://www.w3.org/2000/svg">
<g clip-path="url(#clip0_2144_8914)">
<path d="M48 44.25C48 46.3211 46.3211 48 44.25 48H3.75C1.67888 48 0 46.3211 0 44.25V3.75C0 1.67888 1.67888 0 3.75 0H44.25C46.3211 0 48 1.67888 48 3.75V44.25Z" fill="#FFE812" style="fill:#FFE812;fill:color(display-p3 1.0000 0.9098 0.0706);fill-opacity:1;"/>
<path d="M24.0004 10.3486C15.3847 10.3486 8.40039 15.8556 8.40039 22.6486C8.40039 27.0405 11.3203 30.8941 15.7126 33.0702C15.4736 33.8943 14.177 38.3718 14.1254 38.7235C14.1254 38.7235 14.0944 38.9878 14.2655 39.0886C14.4367 39.1894 14.638 39.1111 14.638 39.1111C15.1288 39.0426 20.3294 35.3895 21.2296 34.7551C22.1288 34.8825 23.0548 34.9486 24.0004 34.9486C32.6161 34.9486 39.6004 29.4418 39.6004 22.6486C39.6004 15.8556 32.6161 10.3486 24.0004 10.3486Z" fill="black" style="fill:black;fill-opacity:1;"/>
<path d="M15.375 26.9424C14.8786 26.9424 14.475 26.5569 14.475 26.0829V20.7361H13.0707C12.5837 20.7361 12.1875 20.3407 12.1875 19.8549C12.1875 19.369 12.5838 18.9736 13.0707 18.9736H17.6793C18.1663 18.9736 18.5625 19.369 18.5625 19.8549C18.5625 20.3407 18.1662 20.7361 17.6793 20.7361H16.275V26.0829C16.275 26.5569 15.8714 26.9424 15.375 26.9424ZM23.2668 26.9307C22.8915 26.9307 22.6044 26.7783 22.5179 26.5332L22.0722 25.3665L19.3278 25.3663L18.8818 26.5338C18.7956 26.7784 18.5087 26.9307 18.1333 26.9307C17.9359 26.9309 17.7408 26.8885 17.5612 26.8065C17.3131 26.692 17.0747 26.3773 17.3479 25.5285L19.5007 19.8621C19.6524 19.4311 20.1131 18.9871 20.6993 18.9738C21.2871 18.987 21.7478 19.4311 21.8997 19.863L24.0516 25.5268C24.3255 26.3776 24.087 26.6925 23.8389 26.8066C23.6593 26.8885 23.4642 26.9308 23.2668 26.9307ZM21.5989 23.7723L20.7 21.2185L19.8011 23.7723H21.5989ZM25.5 26.8111C25.0244 26.8111 24.6375 26.4409 24.6375 25.9861V19.8736C24.6375 19.3773 25.0497 18.9736 25.5563 18.9736C26.0628 18.9736 26.475 19.3773 26.475 19.8736V25.1611H28.3875C28.8631 25.1611 29.25 25.5313 29.25 25.9861C29.25 26.4409 28.8631 26.8111 28.3875 26.8111H25.5ZM30.5001 26.9307C30.0038 26.9307 29.6001 26.527 29.6001 26.0307V19.8736C29.6001 19.3773 30.0038 18.9736 30.5001 18.9736C30.9965 18.9736 31.4001 19.3773 31.4001 19.8736V21.808L33.9111 19.297C34.0403 19.1679 34.2177 19.0968 34.4103 19.0968C34.635 19.0968 34.8606 19.1937 35.0297 19.3626C35.1873 19.5201 35.2814 19.7227 35.2943 19.9332C35.3073 20.1454 35.2366 20.34 35.0956 20.4811L33.0447 22.5318L35.26 25.4667C35.3316 25.5608 35.3837 25.6683 35.4133 25.7827C35.443 25.8972 35.4496 26.0164 35.4328 26.1334C35.4168 26.2505 35.3777 26.3633 35.3177 26.4652C35.2578 26.5671 35.1782 26.6561 35.0837 26.727C34.928 26.8453 34.7378 26.9091 34.5423 26.9086C34.4029 26.9093 34.2652 26.8773 34.1403 26.8151C34.0155 26.753 33.9069 26.6625 33.8233 26.5509L31.7127 23.7543L31.4004 24.0666V26.0302C31.4001 26.2689 31.3052 26.4978 31.1364 26.6666C30.9676 26.8354 30.7388 26.9304 30.5001 26.9307Z" fill="#FFE812" style="fill:#FFE812;fill:color(display-p3 1.0000 0.9098 0.0706);fill-opacity:1;"/>
</g>
<defs>
<clipPath id="clip0_2144_8914">
<rect width="48" height="48" rx="24" fill="white" style="fill:white;fill-opacity:1;"/>
</clipPath>
</defs>
</svg>
