<svg width="295" height="48" viewBox="0 0 295 48" fill="none" xmlns="http://www.w3.org/2000/svg">
<rect width="295" height="48" rx="24" fill="#FFE812" style="fill:#FFE812;fill:color(display-p3 1.0000 0.9098 0.0706);fill-opacity:1;"/>
<g clip-path="url(#clip0_2246_397)">
<path d="M101.5 32.4375C101.5 33.3005 100.8 34 99.9375 34H83.0625C82.1995 34 81.5 33.3005 81.5 32.4375V15.5625C81.5 14.6995 82.1995 14 83.0625 14H99.9375C100.8 14 101.5 14.6995 101.5 15.5625V32.4375Z" fill="#FFE812" style="fill:#FFE812;fill:color(display-p3 1.0000 0.9098 0.0706);fill-opacity:1;"/>
<path d="M91.4999 16.4668C86.8054 16.4668 82.9998 19.4674 82.9998 23.1688C82.9998 25.5618 84.5907 27.6616 86.984 28.8473C86.8538 29.2963 86.1473 31.736 86.1192 31.9277C86.1192 31.9277 86.1023 32.0717 86.1956 32.1266C86.2888 32.1816 86.3985 32.1389 86.3985 32.1389C86.6659 32.1015 89.4997 30.111 89.9901 29.7654C90.4801 29.8348 90.9846 29.8708 91.4999 29.8708C96.1944 29.8708 100 26.8703 100 23.1688C100 19.4674 96.1944 16.4668 91.4999 16.4668Z" fill="black" style="fill:black;fill-opacity:1;"/>
<path d="M86.8002 25.508C86.5297 25.508 86.3098 25.298 86.3098 25.0397V22.1264H85.5446C85.2792 22.1264 85.0634 21.9109 85.0634 21.6462C85.0634 21.3815 85.2793 21.166 85.5446 21.166H88.0557C88.3211 21.166 88.537 21.3815 88.537 21.6462C88.537 21.9109 88.321 22.1264 88.0557 22.1264H87.2905V25.0397C87.2905 25.298 87.0706 25.508 86.8002 25.508ZM91.1002 25.5016C90.8957 25.5016 90.7393 25.4186 90.6922 25.2851L90.4493 24.6493L88.954 24.6493L88.711 25.2854C88.664 25.4187 88.5076 25.5016 88.3031 25.5016C88.1956 25.5018 88.0892 25.4787 87.9914 25.434C87.8562 25.3716 87.7263 25.2001 87.8752 24.7376L89.0482 21.6501C89.1308 21.4153 89.3818 21.1734 89.7012 21.1661C90.0215 21.1733 90.2725 21.4153 90.3553 21.6506L91.5279 24.7367C91.6771 25.2003 91.5472 25.3719 91.412 25.4341C91.3141 25.4787 91.2078 25.5017 91.1002 25.5016ZM90.1915 23.7807L89.7016 22.3892L89.2118 23.7807H90.1915ZM92.3171 25.4365C92.0579 25.4365 91.8471 25.2348 91.8471 24.987V21.6564C91.8471 21.386 92.0717 21.166 92.3477 21.166C92.6237 21.166 92.8483 21.386 92.8483 21.6564V24.5375H93.8904C94.1496 24.5375 94.3604 24.7392 94.3604 24.987C94.3604 25.2348 94.1496 25.4365 93.8904 25.4365H92.3171ZM95.0415 25.5016C94.7711 25.5016 94.5511 25.2817 94.5511 25.0113V21.6564C94.5511 21.386 94.7711 21.166 95.0415 21.166C95.312 21.166 95.5319 21.386 95.5319 21.6564V22.7104L96.9001 21.3422C96.9705 21.2719 97.0672 21.2331 97.1721 21.2331C97.2945 21.2331 97.4175 21.2859 97.5096 21.3779C97.5955 21.4638 97.6467 21.5742 97.6538 21.6889C97.6609 21.8045 97.6224 21.9105 97.5455 21.9874L96.428 23.1048L97.6351 24.7039C97.6741 24.7552 97.7025 24.8138 97.7186 24.8761C97.7348 24.9385 97.7384 25.0035 97.7293 25.0672C97.7205 25.1311 97.6992 25.1925 97.6665 25.248C97.6339 25.3035 97.5905 25.352 97.539 25.3907C97.4542 25.4551 97.3505 25.4899 97.244 25.4896C97.168 25.49 97.093 25.4725 97.025 25.4387C96.957 25.4048 96.8978 25.3555 96.8523 25.2947L95.7022 23.7709L95.5321 23.9411V25.011C95.5319 25.1411 95.4802 25.2658 95.3882 25.3577C95.2963 25.4497 95.1716 25.5015 95.0415 25.5016Z" fill="#FFE812" style="fill:#FFE812;fill:color(display-p3 1.0000 0.9098 0.0706);fill-opacity:1;"/>
</g>
<path d="M115.827 19.5625C115.816 22.6562 114.866 25.4102 111.034 27.2969L110.425 26.4648C112.323 25.5332 113.454 24.4023 114.081 23.0664L110.648 23.3945L110.484 22.4336L114.421 22.1641C114.579 21.6309 114.673 21.0625 114.714 20.4648H111.034V19.5625H115.827ZM118.546 18.4961V22.6914H120.175V23.6055H118.546V28.9844H117.433V18.4961H118.546ZM125.838 19.5625C125.827 22.6562 124.877 25.4102 121.045 27.2969L120.436 26.4648C122.335 25.5332 123.465 24.4023 124.092 23.0664L120.659 23.3945L120.495 22.4336L124.432 22.1641C124.59 21.6309 124.684 21.0625 124.725 20.4648H121.045V19.5625H125.838ZM128.557 18.4961V22.6914H130.186V23.6055H128.557V28.9844H127.444V18.4961H128.557ZM135.17 19.1289C137.42 19.1406 139.049 20.2422 139.049 21.918C139.049 23.4941 137.684 24.5312 135.721 24.6953V26.7578H139.998V27.6836H130.389V26.7578H134.619V24.6953C132.668 24.5312 131.303 23.4941 131.303 21.918C131.303 20.2422 132.932 19.1406 135.17 19.1289ZM135.17 20.043C133.553 20.0312 132.381 20.7812 132.381 21.918C132.381 23.1016 133.553 23.8281 135.17 23.8398C136.799 23.8281 137.971 23.1016 137.971 21.918C137.971 20.7812 136.799 20.0312 135.17 20.043ZM149.974 24.1211V25.0117H140.376V24.1211H144.618V23.125H141.63V18.7656H148.802V19.6445H142.755V20.5H148.532V21.3438H142.755V22.2695H148.872V23.125H145.732V24.1211H149.974ZM148.755 25.8555V28.9961H147.618V26.7461H141.466V25.8555H148.755ZM155.192 19.1289C157.395 19.1289 159.071 20.2891 159.071 22.0586C159.071 23.8281 157.395 25 155.192 24.9883C152.989 25 151.325 23.8281 151.325 22.0586C151.325 20.2891 152.989 19.1289 155.192 19.1289ZM155.192 20.0312C153.587 20.0195 152.38 20.8398 152.391 22.0586C152.38 23.2891 153.587 24.0742 155.192 24.0742C156.798 24.0742 157.993 23.2891 157.993 22.0586C157.993 20.8398 156.798 20.0195 155.192 20.0312ZM160.02 26.7109V27.6367H150.411V26.7109H160.02ZM170.031 26.8047V27.7422H160.422V26.8047H164.652V24.9648H161.594V21.625H167.758V20.1484H161.57V19.2344H168.859V22.5156H162.695V24.0508H169.105V24.9648H165.754V26.8047H170.031ZM177.737 25.0938C180.01 25.0938 181.44 25.8086 181.452 27.0391C181.44 28.2578 180.01 28.9844 177.737 28.9727C175.487 28.9844 174.046 28.2578 174.046 27.0391C174.046 25.8086 175.487 25.0938 177.737 25.0938ZM177.737 25.9375C176.143 25.9375 175.147 26.3477 175.159 27.0391C175.147 27.7188 176.143 28.1172 177.737 28.1172C179.342 28.1172 180.339 27.7188 180.35 27.0391C180.339 26.3477 179.342 25.9375 177.737 25.9375ZM181.37 19.0117V19.8906C181.37 20.7344 181.37 21.6016 181.077 22.6797L179.987 22.5625C180.268 21.4902 180.268 20.7168 180.268 19.9023H174.128V19.0117H181.37ZM182.565 23.3242V24.2266H173.014V23.3242H176.846V21.3555H177.936V23.3242H182.565ZM192.611 24.4258V25.3398H190.174V28.9961H189.049V25.3398H186.541V28.9961H185.393V25.3398H183.002V24.4258H192.611ZM187.783 18.8945C189.998 18.8945 191.522 19.7969 191.522 21.2148C191.522 22.6094 189.998 23.5 187.783 23.4883C185.557 23.5 184.045 22.6094 184.045 21.2148C184.045 19.7969 185.557 18.8945 187.783 18.8945ZM187.783 19.7852C186.225 19.7969 185.182 20.3359 185.193 21.2148C185.182 22.0703 186.225 22.6094 187.783 22.6094C189.342 22.6094 190.385 22.0703 190.385 21.2148C190.385 20.3359 189.342 19.7969 187.783 19.7852ZM201.205 18.4961V22.75H202.892V23.6758H201.205V28.9961H200.103V18.4961H201.205ZM199.189 20.1367V21.0508H192.966V20.1367H195.556V18.6367H196.669V20.1367H199.189ZM196.119 21.8242C197.619 21.8242 198.72 22.832 198.732 24.2617C198.72 25.7031 197.619 26.6992 196.119 26.7109C194.607 26.6992 193.505 25.7031 193.505 24.2617C193.505 22.832 194.607 21.8242 196.119 21.8242ZM196.119 22.7383C195.228 22.7383 194.56 23.3594 194.572 24.2617C194.56 25.1758 195.228 25.7852 196.119 25.7734C197.009 25.7852 197.665 25.1758 197.665 24.2617C197.665 23.3594 197.009 22.7383 196.119 22.7383ZM211.766 18.4961V28.9961H210.641V18.4961H211.766ZM208.637 19.6211C208.637 22.6914 207.325 25.3633 203.727 27.0859L203.141 26.1836C205.936 24.8535 207.296 22.9609 207.512 20.5117H203.645V19.6211H208.637Z" fill="#4B4A4A" style="fill:#4B4A4A;fill:color(display-p3 0.2928 0.2897 0.2897);fill-opacity:1;"/>
<defs>
<clipPath id="clip0_2246_397">
<rect x="81.5" y="14" width="20" height="20" rx="10" fill="white" style="fill:white;fill-opacity:1;"/>
</clipPath>
</defs>
</svg>
