<svg width="9" height="9" viewBox="0 0 9 9" fill="none" xmlns="http://www.w3.org/2000/svg">
<path d="M8.03037 3.95383C8.12357 3.98387 8.12357 4.11574 8.03037 4.14578L5.14208 5.07671C5.1112 5.08667 5.08699 5.11087 5.07704 5.14175L4.1461 8.03004C4.11606 8.12324 3.9842 8.12324 3.95416 8.03004L3.02322 5.14175C3.01327 5.11087 2.98906 5.08667 2.95818 5.07671L0.0698905 4.14578C-0.0233103 4.11574 -0.0233103 3.98387 0.0698905 3.95383L2.95818 3.0229C2.98906 3.01294 3.01327 2.98874 3.02322 2.95786L3.95416 0.0695662C3.9842 -0.0236344 4.11606 -0.0236345 4.1461 0.0695662L5.07704 2.95786C5.08699 2.98874 5.1112 3.01294 5.14208 3.0229L8.03037 3.95383Z" fill="currentColor"/>
</svg>
