<svg width="8" height="8" viewBox="0 0 8 8" fill="none" xmlns="http://www.w3.org/2000/svg">
<path d="M3.52605 0.0871023C3.54179 -0.0293376 3.71017 -0.0293382 3.7259 0.0871017L4.12497 3.04023C4.13105 3.08521 4.16642 3.12058 4.2114 3.12666L7.16453 3.52573C7.28097 3.54146 7.28097 3.70984 7.16453 3.72558L4.2114 4.12465C4.16642 4.13073 4.13105 4.1661 4.12497 4.21107L3.7259 7.1642C3.71017 7.28064 3.54179 7.28064 3.52605 7.1642L3.12698 4.21107C3.1209 4.1661 3.08553 4.13073 3.04056 4.12465L0.0874265 3.72558C-0.0290134 3.70984 -0.0290141 3.54146 0.0874259 3.52573L3.04056 3.12666C3.08553 3.12058 3.1209 3.08521 3.12698 3.04023L3.52605 0.0871023Z" fill="currentColor"/>
</svg>
