<svg width="222" height="48" viewBox="0 0 222 48" fill="none" xmlns="http://www.w3.org/2000/svg">
<rect width="222" height="48" rx="24" fill="#FFE812" style="fill:#FFE812;fill:color(display-p3 1.0000 0.9098 0.0706);fill-opacity:1;"/>
<g clip-path="url(#clip0_2443_295)">
<path d="M46 32.4375C46 33.3005 45.3005 34 44.4375 34H27.5625C26.6995 34 26 33.3005 26 32.4375V15.5625C26 14.6995 26.6995 14 27.5625 14H44.4375C45.3005 14 46 14.6995 46 15.5625V32.4375Z" fill="#FFE812" style="fill:#FFE812;fill:color(display-p3 1.0000 0.9098 0.0706);fill-opacity:1;"/>
<path d="M35.9999 16.4668C31.3054 16.4668 27.4998 19.4674 27.4998 23.1688C27.4998 25.5618 29.0907 27.6616 31.484 28.8473C31.3538 29.2963 30.6473 31.736 30.6192 31.9277C30.6192 31.9277 30.6023 32.0717 30.6956 32.1266C30.7888 32.1816 30.8985 32.1389 30.8985 32.1389C31.1659 32.1015 33.9997 30.111 34.4901 29.7654C34.9801 29.8348 35.4846 29.8708 35.9999 29.8708C40.6944 29.8708 44.5 26.8703 44.5 23.1688C44.5 19.4674 40.6944 16.4668 35.9999 16.4668Z" fill="black" style="fill:black;fill-opacity:1;"/>
<path d="M31.3 25.508C31.0296 25.508 30.8096 25.298 30.8096 25.0397V22.1264H30.0445C29.7791 22.1264 29.5632 21.9109 29.5632 21.6462C29.5632 21.3815 29.7792 21.166 30.0445 21.166H32.5556C32.821 21.166 33.0368 21.3815 33.0368 21.6462C33.0368 21.9109 32.8209 22.1264 32.5556 22.1264H31.7904V25.0397C31.7904 25.298 31.5705 25.508 31.3 25.508ZM35.6001 25.5016C35.3956 25.5016 35.2392 25.4186 35.192 25.2851L34.9492 24.6493L33.4538 24.6493L33.2108 25.2854C33.1639 25.4187 33.0075 25.5016 32.803 25.5016C32.6954 25.5018 32.5891 25.4787 32.4913 25.434C32.3561 25.3716 32.2261 25.2001 32.3751 24.7376L33.5481 21.6501C33.6307 21.4153 33.8817 21.1734 34.2011 21.1661C34.5214 21.1733 34.7724 21.4153 34.8552 21.6506L36.0277 24.7367C36.177 25.2003 36.047 25.3719 35.9118 25.4341C35.814 25.4787 35.7077 25.5017 35.6001 25.5016ZM34.6913 23.7807L34.2015 22.3892L33.7117 23.7807H34.6913ZM36.8169 25.4365C36.5578 25.4365 36.347 25.2348 36.347 24.987V21.6564C36.347 21.386 36.5716 21.166 36.8476 21.166C37.1236 21.166 37.3482 21.386 37.3482 21.6564V24.5375H38.3903C38.6495 24.5375 38.8602 24.7392 38.8602 24.987C38.8602 25.2348 38.6495 25.4365 38.3903 25.4365H36.8169ZM39.5414 25.5016C39.2709 25.5016 39.051 25.2817 39.051 25.0113V21.6564C39.051 21.386 39.2709 21.166 39.5414 21.166C39.8118 21.166 40.0318 21.386 40.0318 21.6564V22.7104L41.4 21.3422C41.4704 21.2719 41.567 21.2331 41.672 21.2331C41.7944 21.2331 41.9173 21.2859 42.0095 21.3779C42.0954 21.4638 42.1466 21.5742 42.1536 21.6889C42.1607 21.8045 42.1222 21.9105 42.0454 21.9874L40.9279 23.1048L42.135 24.7039C42.174 24.7552 42.2024 24.8138 42.2185 24.8761C42.2347 24.9385 42.2383 25.0035 42.2291 25.0672C42.2204 25.1311 42.1991 25.1925 42.1664 25.248C42.1338 25.3035 42.0904 25.352 42.0389 25.3907C41.9541 25.4551 41.8504 25.4899 41.7439 25.4896C41.6679 25.49 41.5929 25.4725 41.5249 25.4387C41.4569 25.4048 41.3977 25.3555 41.3522 25.2947L40.2021 23.7709L40.0319 23.9411V25.011C40.0318 25.1411 39.9801 25.2658 39.8881 25.3577C39.7961 25.4497 39.6715 25.5015 39.5414 25.5016Z" fill="#FFE812" style="fill:#FFE812;fill:color(display-p3 1.0000 0.9098 0.0706);fill-opacity:1;"/>
</g>
<path d="M61.8594 18.5781C61.8438 22.9688 60.7812 26.625 55.4688 29.2812L54.375 27.7812C56.75 26.6016 58.1641 25.2812 58.9688 23.7031L54.7656 24.0938L54.5156 22.3906L59.5781 22.0781C59.7188 21.4844 59.8203 20.8438 59.875 20.1719H55.2656V18.5781H61.8594ZM65.6562 17.2188V22.6719H67.6719V24.3125H65.6562V31.4062H63.6562V17.2188H65.6562ZM75.6875 18.5781C75.6719 22.9688 74.6094 26.625 69.2969 29.2812L68.2031 27.7812C70.5781 26.6016 71.9922 25.2812 72.7969 23.7031L68.5938 24.0938L68.3438 22.3906L73.4062 22.0781C73.5469 21.4844 73.6484 20.8438 73.7031 20.1719H69.0938V18.5781H75.6875ZM79.4844 17.2188V22.6719H81.5V24.3125H79.4844V31.4062H77.4844V17.2188H79.4844ZM88.5781 17.9531C91.6406 17.9531 93.9219 19.5 93.9375 21.8438C93.9219 23.9844 92.1172 25.4297 89.5625 25.7188V28.1406H95.1094V29.7812H82.0938V28.1406H87.5781V25.7031C85.0312 25.4297 83.2344 23.9766 83.2344 21.8438C83.2344 19.5 85.5156 17.9531 88.5781 17.9531ZM88.5781 19.5469C86.5938 19.5469 85.2031 20.4219 85.2031 21.8438C85.2031 23.3438 86.5938 24.1875 88.5781 24.1875C90.5781 24.1875 91.9531 23.3438 91.9688 21.8438C91.9531 20.4219 90.5781 19.5469 88.5781 19.5469ZM108.891 24.7656V26.3281H95.8906V24.7656H101.391V23.7188H97.5156V17.5312H107.375V19.0781H99.5156V19.875H107.047V21.3438H99.5156V22.2031H107.5V23.7188H103.391V24.7656H108.891ZM107.297 27.2031V31.4375H105.281V28.7656H97.3594V27.2031H107.297ZM116.234 17.9375C119.234 17.9531 121.578 19.5625 121.594 22.0312C121.578 24.5156 119.234 26.1406 116.234 26.125C113.219 26.1406 110.891 24.5156 110.891 22.0312C110.891 19.5625 113.219 17.9531 116.234 17.9375ZM116.234 19.5625C114.266 19.5469 112.828 20.5 112.828 22.0312C112.828 23.5781 114.266 24.5 116.234 24.5C118.203 24.5 119.609 23.5781 119.625 22.0312C119.609 20.5 118.203 19.5469 116.234 19.5625ZM122.766 28.0938V29.7031H109.75V28.0938H122.766ZM136.594 28.2188V29.8594H123.578V28.2188H129.062V26.0781H125.078V21.2969H133.125V19.7344H125.062V18.1406H135.094V22.8594H127.078V24.4531H135.422V26.0781H131.047V28.2188H136.594ZM147.5 26.0781C150.609 26.0781 152.562 27.0625 152.578 28.7656C152.562 30.4375 150.609 31.4375 147.5 31.4375C144.422 31.4375 142.438 30.4375 142.438 28.7656C142.438 27.0625 144.422 26.0781 147.5 26.0781ZM147.5 27.5625C145.547 27.5625 144.422 27.9688 144.422 28.7656C144.422 29.5312 145.547 29.9219 147.5 29.9219C149.453 29.9219 150.594 29.5312 150.594 28.7656C150.594 27.9688 149.453 27.5625 147.5 27.5625ZM152.5 17.8594V19.0156C152.5 20.1406 152.5 21.3594 152.094 22.8281L150.141 22.6406C150.453 21.3516 150.492 20.3906 150.516 19.4219H142.578V17.8594H152.5ZM154.031 23.5625V25.1719H141.125V23.5625H145.969V21.0781H147.938V23.5625H154.031ZM167.922 25.125V26.7344H164.875V31.4375H162.844V26.7344H159.938V31.4375H157.891V26.7344H154.906V25.125H167.922ZM161.375 17.6875C164.422 17.6875 166.562 18.9531 166.562 20.9062C166.562 22.8281 164.422 24.0312 161.375 24.0312C158.328 24.0312 156.203 22.8281 156.219 20.9062C156.203 18.9531 158.328 17.6875 161.375 17.6875ZM161.375 19.2812C159.469 19.2812 158.25 19.8594 158.266 20.9062C158.25 21.9062 159.469 22.4688 161.375 22.4688C163.297 22.4688 164.5 21.9062 164.5 20.9062C164.5 19.8594 163.297 19.2812 161.375 19.2812ZM179.969 17.2188V22.7812H182.062V24.4219H179.969V31.4375H178V17.2188H179.969ZM177.031 19.3438V20.9375H168.672V19.3438H171.891V17.4375H173.891V19.3438H177.031ZM172.891 21.7344C174.969 21.7344 176.516 23.1406 176.516 25.125C176.516 27.1094 174.969 28.5156 172.891 28.5156C170.797 28.5156 169.25 27.1094 169.25 25.125C169.25 23.1406 170.797 21.7344 172.891 21.7344ZM172.891 23.3438C171.891 23.3594 171.156 24.0312 171.156 25.125C171.156 26.2344 171.891 26.8906 172.891 26.875C173.891 26.8906 174.609 26.2344 174.609 25.125C174.609 24.0312 173.891 23.3594 172.891 23.3438ZM194.531 17.2188V31.4375H192.516V17.2188H194.531ZM190.266 18.7031C190.266 23.0156 188.75 26.5938 183.672 29L182.625 27.4062C186.297 25.6719 187.914 23.4219 188.234 20.2656H183.391V18.7031H190.266Z" fill="#6C2222" style="fill:#6C2222;fill:color(display-p3 0.4251 0.1340 0.1340);fill-opacity:1;"/>
<defs>
<clipPath id="clip0_2443_295">
<rect x="26" y="14" width="20" height="20" rx="10" fill="white" style="fill:white;fill-opacity:1;"/>
</clipPath>
</defs>
</svg>
