<svg width="24" height="24" viewBox="0 0 24 24" fill="none" xmlns="http://www.w3.org/2000/svg">
<path d="M17.2929 5.29289C17.6834 4.90237 18.3164 4.90237 18.7069 5.29289C19.0974 5.68342 19.0975 6.31645 18.7069 6.70696L13.414 11.9999L18.7069 17.2929L18.7753 17.3691C19.0956 17.7618 19.073 18.3409 18.7069 18.707C18.3409 19.073 17.7618 19.0956 17.3691 18.7753L17.2929 18.707L11.9999 13.414L6.70695 18.707C6.31644 19.0974 5.68341 19.0974 5.29289 18.707C4.90237 18.3164 4.90238 17.6834 5.29289 17.2929L10.5859 11.9999L5.29289 6.70696L5.22453 6.63078C4.90418 6.23802 4.92678 5.65901 5.29289 5.29289C5.659 4.92678 6.238 4.90418 6.63078 5.22453L6.70695 5.29289L11.9999 10.5859L17.2929 5.29289Z" fill="#D87875" style="fill:#D87875;fill:color(display-p3 0.8482 0.4707 0.4577);fill-opacity:1;"/>
</svg>
